<svg height="480pt" viewBox="-56 0 480 480" width="480pt" xmlns="http://www.w3.org/2000/svg"><path d="m103.878906 111.496094.722656-47.496094h167.429688l23.679688 23.679688-5.65625 6.296874-18.03125 18.03125zm0 0" fill="#78b9eb"/><g fill="#1a6fb0"><path d="m176 152h32v16h-32zm0 0"/><path d="m216 152h16v16h-16zm0 0"/><path d="m344 0h-304c-13.238281.0390625-23.960938 10.761719-24 24v8h-16v16h16v24h-16v16h16v24h-16v16h16v24h-16v16h16v24h-16v16h16v24h-16v16h16v24h-16v16h16v24h-16v16h16v24h-16v16h16v24h-16v16h16v24h-16v16h16v8c.039062 13.238281 10.761719 23.960938 24 24h304c13.238281-.039062 23.960938-10.761719 24-24v-432c-.039062-13.238281-10.761719-23.9609375-24-24zm8 456c0 4.417969-3.582031 8-8 8h-304c-4.417969 0-8-3.582031-8-8v-8h16v-16h-16v-24h16v-16h-16v-24h16v-16h-16v-24h16v-16h-16v-24h16v-16h-16v-24h16v-16h-16v-24h16v-16h-16v-24h16v-16h-16v-24h16v-16h-16v-24h16v-16h-16v-24h16v-16h-16v-8c0-4.417969 3.582031-8 8-8h304c4.417969 0 8 3.582031 8 8zm0 0"/><path d="m295.679688 76.320312-18-18c-1.523438-1.472656-3.558594-2.304687-5.679688-2.320312h-159.519531c-4.375-.007812-8.570313 1.726562-11.660157 4.820312-3.09375 3.089844-4.828124 7.285157-4.820312 11.660157v31.039062c-.007812 4.375 1.726562 8.570313 4.820312 11.660157 3.089844 3.09375 7.285157 4.828124 11.660157 4.820312h159.519531c2.121094-.015625 4.15625-.847656 5.679688-2.320312l18-18c6.402343-6.46875 6.402343-16.890626 0-23.359376zm-11.28125 12-15.679688 15.679688-156.71875-.480469.480469-31.519531h156.238281l15.679688 15.679688c.160156.183593.160156.457031 0 .640624zm0 0"/><path d="m80 200h224v16h-224zm0 0"/><path d="m80 248h224v16h-224zm0 0"/><path d="m80 296h224v16h-224zm0 0"/><path d="m80 344h224v16h-224zm0 0"/><path d="m56 24h16v16h-16zm0 0"/><path d="m56 424h16v16h-16zm0 0"/><path d="m144 392h96v16h-96zm0 0"/><path d="m248 392h16v16h-16zm0 0"/><path d="m120 392h16v16h-16zm0 0"/><path d="m152 152h16v16h-16zm0 0"/></g></svg>